# xmcd
#
# Track frame offsets: 
#        150
#        7050
#        23365
#        27115
#        43545
#        63652
#        68247
#        72780
#        91520
#        97035
#        112065
#        117755
#        133760
#        146665
#        152842
#        160185
#
# Disc length: 2206 seconds
#
# Revision: 2
# Processed by: cddbd v1.5.2PL0 Copyright (c) Steve Scherf et al.
# Submitted via: ExactAudioCopyFreeDBPlugin 1.0
#
DISCID=d2089c10
DTITLE=DELI - AQUARIUS
DYEAR=2000
DGENRE=Hip-Hop
TTITLE0=INTRO
TTITLE1=BURNIN'
TTITLE2=DRAMA1
TTITLE3=極者
TTITLE4=悪戯
TTITLE5=DRAMA2
TTITLE6=DRAMA3
TTITLE7=AQUARIUS
TTITLE8=DRAMA4
TTITLE9=ROADRUNNERS
TTITLE10=DRAMA5
TTITLE11=BURNIN'-REMIX
TTITLE12=出口はあっち
TTITLE13=OUTRO
TTITLE14=BONUS TRACK
TTITLE15=BONUS TRACK
EXTD=
EXTT0=
EXTT1=
EXTT2=
EXTT3=
EXTT4=
EXTT5=
EXTT6=
EXTT7=
EXTT8=
EXTT9=
EXTT10=
EXTT11=
EXTT12=
EXTT13=
EXTT14=
EXTT15=
PLAYORDER=
